<svg id="facebook-logo" xmlns="http://www.w3.org/2000/svg" width="10.272" height="18.999" viewBox="0 0 10.272 18.999">
  <path id="Path_31" data-name="Path 31" d="M31.962,0,29.5,0a4.327,4.327,0,0,0-4.557,4.676V6.831H22.464a.387.387,0,0,0-.387.388v3.123a.387.387,0,0,0,.387.387h2.477v7.881a.387.387,0,0,0,.387.387h3.232a.387.387,0,0,0,.387-.387V10.73h2.9a.387.387,0,0,0,.387-.387V7.219a.388.388,0,0,0-.388-.388h-2.9V5c0-.878.209-1.324,1.354-1.324h1.66a.387.387,0,0,0,.387-.387V.391A.388.388,0,0,0,31.962,0Z" transform="translate(-22.077)" fill="#fff"/>
</svg>
