<svg id="instagram_1_" data-name="instagram (1)" xmlns="http://www.w3.org/2000/svg" width="18.616" height="18.616" viewBox="0 0 18.616 18.616">
  <path id="Path_32" data-name="Path 32" d="M13.577,0H5.039A5.045,5.045,0,0,0,0,5.039v8.538a5.045,5.045,0,0,0,5.039,5.039h8.538a5.045,5.045,0,0,0,5.039-5.039V5.039A5.045,5.045,0,0,0,13.577,0ZM9.308,14.4a5.09,5.09,0,1,1,5.09-5.09A5.1,5.1,0,0,1,9.308,14.4Zm5.212-8.98a1.5,1.5,0,1,1,1.5-1.5A1.506,1.506,0,0,1,14.52,5.418Zm0,0" fill="#fff"/>
  <path id="Path_33" data-name="Path 33" d="M150.018,146.02a4,4,0,1,0,4,4A4,4,0,0,0,150.018,146.02Zm0,0" transform="translate(-140.71 -140.71)" fill="#fff"/>
  <path id="Path_34" data-name="Path 34" d="M388.4,96.3a.413.413,0,1,0,.413.413A.413.413,0,0,0,388.4,96.3Zm0,0" transform="translate(-373.885 -92.799)" fill="#fff"/>
</svg>
