<svg xmlns="http://www.w3.org/2000/svg" width="129.609" height="41.044" viewBox="0 0 129.609 41.044">
  <g id="NaturalmuchLogo" transform="translate(-157.6 -386.89)">
    <g id="Group_4" data-name="Group 4" transform="translate(157.6 386.89)">
      <path id="Path_47" data-name="Path 47" d="M797.744,536.746h-3.335c0-.857.006-1.606,0-2.355-.015-1.579.008-3.16-.068-4.737-.055-1.136-.656-1.577-1.841-1.517-1.23.063-1.784.573-1.786,1.657,0,2.267,0,4.535,0,6.857H787.56V521.48h3.113v5.507a6.188,6.188,0,0,1,.992-.624,10.887,10.887,0,0,1,2.912-.906,2.834,2.834,0,0,1,2.94,2.332c.063.208.152.409.227.612Z" transform="translate(-668.135 -495.965)" fill="#056839"/>
      <path id="Path_48" data-name="Path 48" d="M437.35,394.551a23.589,23.589,0,0,1,11.4,1.321,23.736,23.736,0,0,1,7.115-8.982,23.265,23.265,0,0,1,7.041,8.868,44.143,44.143,0,0,1,4.976-1.113c1.93-.214,3.9-.116,5.845-.165.531-.013.713.245.747.736a22.394,22.394,0,0,1-1.89,11.64c-2.006,4.118-5.492,6.32-9.829,7.291a29.568,29.568,0,0,1-4.307.569c-.739.053-.971.267-.965,1,.03,3.572.013,7.141.013,10.713v1.155h-3.23v-1.045c0-3.539-.027-7.079.019-10.618.011-.876-.2-1.164-1.13-1.211-3.981-.2-7.757-1.105-10.88-3.778a14.786,14.786,0,0,1-4.665-8.775A24.73,24.73,0,0,1,437.35,394.551Zm18.461-3.323c-2.713,2.931-4.99,6.066-4.834,10.309a11.6,11.6,0,0,0,3.147,7.153,13.485,13.485,0,0,0,.114-3.293,2.86,2.86,0,0,1,1.625-3,2.929,2.929,0,0,1,1.655,3.1,30.4,30.4,0,0,0-.023,3.348C462.465,403.211,461.578,396.814,455.811,391.227ZM440.5,397.592c-1.067,6.806,5.3,14.531,11.17,13.6-.6-.935-1.236-1.833-1.788-2.775a13.954,13.954,0,0,1-2.142-7.816c.085-1.767.415-1.441-1.335-2.114a4.591,4.591,0,0,0-.451-.136A18.558,18.558,0,0,0,440.5,397.592Zm30.789-.013a17.882,17.882,0,0,0-7.045,1.346c-.188.081-.315.5-.322.762-.021.69.1,1.386.059,2.072a16.332,16.332,0,0,1-3.433,8.669c-.184.254-.345.527-.582.889C467.593,410.505,471.292,405.832,471.288,397.578Z" transform="translate(-384.174 -386.89)" fill="#056839"/>
      <path id="Path_49" data-name="Path 49" d="M160.764,539.472H157.6V524.941c1.373,0,2.747-.028,4.118.03.21.009.453.381.6.635,1.255,2.224,2.491,4.459,3.735,6.69a2.172,2.172,0,0,0,.734.851v-8.161h3.166v14.523c-1,0-1.975.049-2.938-.03a1.285,1.285,0,0,1-.777-.654c-1.627-2.883-3.221-5.784-4.827-8.681a2.146,2.146,0,0,0-.643-.779C160.764,532.706,160.764,536.046,160.764,539.472Z" transform="translate(-157.6 -498.764)" fill="#056839"/>
      <path id="Path_50" data-name="Path 50" d="M569.61,553.4h-3.249c-.017-.351-.045-.686-.049-1.024-.019-1.958-.021-3.917-.053-5.875-.011-.688-.165-1.365-.946-1.575a2.148,2.148,0,0,0-2.188.555,1.416,1.416,0,0,0-.186.882c-.015,1.991-.008,3.981-.008,5.97v1.046H559.68V542.561h3.181c.044.313.085.618.112.8a17,17,0,0,1,3.363-1.19,2.74,2.74,0,0,1,2.919,1.863c.664-.478,1.219-.94,1.831-1.312,2.419-1.465,4.88-.22,5.151,2.592.03.313.028.631.028.948,0,2.336,0,4.673,0,7.084h-3.32c0-1.077.006-2.142,0-3.208-.009-1.357.023-2.719-.068-4.072-.062-.931-.654-1.287-1.683-1.213s-1.579.563-1.581,1.443C569.606,548.631,569.61,550.965,569.61,553.4Z" transform="translate(-483.456 -512.68)" fill="#056839"/>
      <path id="Path_51" data-name="Path 51" d="M244.463,553.414h-3.09c-.044-.347-.083-.673-.14-1.141-.33.241-.573.415-.813.591a4.435,4.435,0,0,1-3.78.7,3.186,3.186,0,0,1-2.311-2.825,2.985,2.985,0,0,1,1.668-3.4,33.879,33.879,0,0,1,4.48-1.012c.241-.051.491-.055.77-.085.165-.978-.364-1.431-1.156-1.672a5.9,5.9,0,0,0-3.71.246c-.32.11-.641.224-1.117.392,0-.8-.03-1.481.021-2.154a.7.7,0,0,1,.438-.482,12.363,12.363,0,0,1,6.538-.008,2.713,2.713,0,0,1,2.165,2.375C244.543,547.738,244.463,550.54,244.463,553.414Zm-3.162-5.3c-.967.171-1.776.262-2.554.466a1.366,1.366,0,0,0-1.1,1.357c-.049,1.264,1.067,1.949,2.489,1.4a2.041,2.041,0,0,0,1.115-1.079A7.771,7.771,0,0,0,241.3,548.116Z" transform="translate(-219.754 -512.701)" fill="#056839"/>
      <path id="Path_52" data-name="Path 52" d="M468.607,553.894h-3.122c-.036-.351-.068-.66-.116-1.128-.317.227-.559.394-.794.569a4.352,4.352,0,0,1-3.862.7,3.148,3.148,0,0,1-2.262-2.959c-.087-1.428.307-2.762,1.727-3.268a33.611,33.611,0,0,1,4.485-.99,5.281,5.281,0,0,1,.637-.059c.159-.959-.182-1.446-1.143-1.712a6.088,6.088,0,0,0-3.708.288c-.317.11-.637.21-.944.311-.057-.118-.08-.146-.08-.172-.042-2.882-.489-2.343,2.159-2.66a16.775,16.775,0,0,1,4.673.245,2.626,2.626,0,0,1,2.32,2.531C468.677,548.327,468.607,551.068,468.607,553.894Zm-3.183-5.291a13.278,13.278,0,0,0-2.662.555,1.947,1.947,0,0,0-.944,1.323c-.169,1.2,1,1.875,2.4,1.373a2.016,2.016,0,0,0,1.156-1.043A7.938,7.938,0,0,0,465.424,548.6Z" transform="translate(-401.408 -513.195)" fill="#056839"/>
      <path id="Path_53" data-name="Path 53" d="M671.569,555.28H668.49c-.047-.372-.091-.7-.154-1.189-.4.271-.7.466-1,.677a3.922,3.922,0,0,1-4.2.436c-1.4-.679-1.691-2.038-1.7-3.452-.019-2.4-.006-4.8-.006-7.285h3.3c0,.95-.008,1.89,0,2.828.013,1.39-.017,2.781.074,4.167a1.48,1.48,0,0,0,1.826,1.448c1.244-.1,1.792-.612,1.793-1.68,0-2.237,0-4.474,0-6.781h3.143C671.569,548.023,671.569,551.6,671.569,555.28Z" transform="translate(-565.913 -514.581)" fill="#056839"/>
      <path id="Path_54" data-name="Path 54" d="M347.418,544.37h3.173c0,.523-.008,1.016,0,1.509.03,1.735.038,3.471.108,5.2.051,1.257.622,1.8,1.735,1.765,1.359-.038,1.9-.563,1.9-1.848,0-2.176,0-4.353,0-6.6h3.177v10.819h-3.094c-.053-.343-.1-.671-.18-1.162-.358.241-.637.408-.895.6a4.224,4.224,0,0,1-3.022.846,2.887,2.887,0,0,1-2.864-2.865C347.3,549.906,347.418,547.162,347.418,544.37Z" transform="translate(-311.401 -514.516)" fill="#056839"/>
      <path id="Path_55" data-name="Path 55" d="M298.713,532.877l-1.143-.157v-2.059c1.319.229,1.365-.574,1.282-1.52-.047-.529-.008-1.065-.008-1.67h3.232c0,.783.019,1.587-.006,2.389-.019.569.2.792.779.77.815-.034,1.632-.009,2.514-.009v2.15h-3.208c0,1.919-.074,3.708.03,5.49.055.948.836,1.38,1.881,1.257a11.662,11.662,0,0,0,1.274-.29c.025.04.049.063.051.087.207,2.243.038,2.427-2.241,2.442-.252,0-.506.006-.758,0-2.5-.08-3.537-1.149-3.549-3.659-.008-1.642-.011-3.285-.023-4.927A1.049,1.049,0,0,0,298.713,532.877Z" transform="translate(-271.035 -500.819)" fill="#056839"/>
      <path id="Path_56" data-name="Path 56" d="M735.983,550.183v1.249c0,1.763.019,1.9-1.7,2.133a12,12,0,0,1-4.2-.1c-2.557-.588-3.774-2.6-3.74-5.623a5.111,5.111,0,0,1,3.9-5.268,8.092,8.092,0,0,1,5.02.224c.51.182.781.421.734,1.012-.053.677-.013,1.361-.013,2.2-1.917-1.251-3.763-2.409-5.591-.349a4.308,4.308,0,0,0,.081,4.967C731.623,551.906,733.02,551.811,735.983,550.183Z" transform="translate(-618.526 -512.816)" fill="#056839"/>
      <path id="Path_57" data-name="Path 57" d="M416.66,544h3.175c.047.453.091.878.15,1.452,1.181-.855,2.245-1.835,3.837-1.454v2.815c-1.01.093-1.945.169-2.878.265-.791.081-1.088.483-1.054,1.323.072,1.8.021,3.6.021,5.393v1.043H416.66Z" transform="translate(-367.549 -514.146)" fill="#056839"/>
    </g>
  </g>
</svg>
