<svg xmlns="http://www.w3.org/2000/svg" width="138.224" height="43.772" viewBox="0 0 138.224 43.772">
  <g id="NaturalmuchLogo" transform="translate(-157.6 -386.89)">
    <g id="Group_3" data-name="Group 3" transform="translate(157.6 386.89)">
      <path id="Path_36" data-name="Path 36" d="M798.421,537.761h-3.556c0-.914.006-1.712,0-2.511-.016-1.684.008-3.37-.073-5.052-.059-1.211-.7-1.682-1.963-1.617-1.312.067-1.9.611-1.9,1.767,0,2.418,0,4.836,0,7.313H787.56V521.48h3.32v5.873a6.6,6.6,0,0,1,1.057-.665,11.613,11.613,0,0,1,3.105-.966,3.022,3.022,0,0,1,3.136,2.487c.067.222.162.437.243.653Z" transform="translate(-660.197 -494.269)" fill="#fff"/>
      <path id="Path_37" data-name="Path 37" d="M437.362,395.06a25.158,25.158,0,0,1,12.157,1.409,25.314,25.314,0,0,1,7.588-9.579,24.811,24.811,0,0,1,7.509,9.458,47.077,47.077,0,0,1,5.307-1.187c2.058-.228,4.155-.123,6.233-.176.566-.014.76.261.8.784a23.882,23.882,0,0,1-2.016,12.414c-2.139,4.391-5.857,6.741-10.483,7.776a31.534,31.534,0,0,1-4.593.607c-.788.057-1.035.285-1.029,1.072.032,3.809.014,7.616.014,11.425v1.231H455.4v-1.114c0-3.775-.028-7.549.02-11.324.012-.934-.212-1.241-1.205-1.292-4.246-.214-8.273-1.179-11.6-4.029-2.873-2.458-4.258-5.744-4.976-9.359A26.374,26.374,0,0,1,437.362,395.06Zm19.688-3.544c-2.893,3.126-5.321,6.47-5.156,10.994a12.366,12.366,0,0,0,3.356,7.628,14.379,14.379,0,0,0,.121-3.512,3.05,3.05,0,0,1,1.733-3.194,3.124,3.124,0,0,1,1.765,3.3,32.436,32.436,0,0,0-.024,3.57C464.146,404.3,463.2,397.474,457.05,391.516ZM440.72,398.3c-1.138,7.258,5.651,15.5,11.912,14.5-.645-1-1.318-1.955-1.907-2.96a14.882,14.882,0,0,1-2.285-8.336c.091-1.884.443-1.536-1.423-2.254a4.889,4.889,0,0,0-.481-.146A19.794,19.794,0,0,0,440.72,398.3Zm32.835-.014a19.071,19.071,0,0,0-7.513,1.435c-.2.087-.336.53-.344.813-.022.736.107,1.478.063,2.21a17.417,17.417,0,0,1-3.661,9.246c-.2.271-.368.562-.621.948C469.615,412.075,473.559,407.091,473.555,398.289Z" transform="translate(-380.651 -386.89)" fill="#fff"/>
      <path id="Path_38" data-name="Path 38" d="M160.974,540.438H157.6v-15.5c1.464,0,2.93-.03,4.391.032.224.01.483.406.635.677,1.338,2.372,2.657,4.755,3.983,7.135a2.317,2.317,0,0,0,.782.908v-8.7h3.376v15.489c-1.07,0-2.107.053-3.134-.032a1.37,1.37,0,0,1-.829-.7c-1.735-3.075-3.435-6.168-5.147-9.258a2.287,2.287,0,0,0-.685-.831C160.974,533.222,160.974,536.784,160.974,540.438Z" transform="translate(-157.6 -497.025)" fill="#fff"/>
      <path id="Path_39" data-name="Path 39" d="M570.27,554.146H566.8c-.018-.374-.049-.732-.053-1.092-.02-2.089-.022-4.177-.057-6.265-.012-.734-.176-1.456-1.009-1.68a2.291,2.291,0,0,0-2.333.592,1.51,1.51,0,0,0-.2.94c-.016,2.123-.008,4.246-.008,6.367v1.116H559.68V542.591h3.393c.047.334.091.659.119.855a18.133,18.133,0,0,1,3.587-1.27,2.923,2.923,0,0,1,3.114,1.987c.708-.509,1.3-1,1.953-1.4,2.58-1.563,5.2-.235,5.493,2.764.032.334.03.673.03,1.011,0,2.491,0,4.984,0,7.555h-3.54c0-1.148.006-2.285,0-3.421-.01-1.448.024-2.9-.073-4.343-.067-.993-.7-1.373-1.8-1.294s-1.684.6-1.686,1.539C570.266,549.065,570.27,551.554,570.27,554.146Z" transform="translate(-478.389 -510.724)" fill="#fff"/>
      <path id="Path_40" data-name="Path 40" d="M245.139,554.164h-3.3c-.047-.37-.089-.718-.15-1.217-.352.257-.611.443-.867.631a4.73,4.73,0,0,1-4.031.748,3.4,3.4,0,0,1-2.465-3.012c-.2-1.609.382-3.12,1.779-3.623a36.137,36.137,0,0,1,4.777-1.08c.257-.055.524-.059.821-.091.176-1.043-.388-1.526-1.233-1.783a6.293,6.293,0,0,0-3.957.263c-.342.117-.683.239-1.191.419,0-.855-.032-1.579.022-2.3a.743.743,0,0,1,.467-.514,13.186,13.186,0,0,1,6.973-.008,2.893,2.893,0,0,1,2.309,2.533C245.224,548.111,245.139,551.1,245.139,554.164Zm-3.372-5.651c-1.031.182-1.894.279-2.723.5a1.457,1.457,0,0,0-1.171,1.448c-.053,1.348,1.138,2.078,2.655,1.5a2.176,2.176,0,0,0,1.189-1.15A8.289,8.289,0,0,0,241.767,548.513Z" transform="translate(-218.788 -510.745)" fill="#fff"/>
      <path id="Path_41" data-name="Path 41" d="M469.282,554.636h-3.33c-.038-.374-.073-.7-.123-1.2-.338.243-.6.421-.847.607a4.642,4.642,0,0,1-4.118.748,3.357,3.357,0,0,1-2.412-3.156c-.093-1.522.328-2.946,1.842-3.486a35.831,35.831,0,0,1,4.783-1.055,5.616,5.616,0,0,1,.679-.063c.17-1.023-.194-1.543-1.219-1.826a6.493,6.493,0,0,0-3.955.307c-.338.117-.679.224-1.007.332-.061-.125-.085-.156-.085-.184-.044-3.073-.522-2.5,2.3-2.837a17.9,17.9,0,0,1,4.984.261,2.8,2.8,0,0,1,2.475,2.7C469.357,548.7,469.282,551.621,469.282,554.636Zm-3.395-5.643a14.16,14.16,0,0,0-2.839.592A2.076,2.076,0,0,0,462.042,551c-.18,1.28,1.065,2,2.558,1.464a2.149,2.149,0,0,0,1.233-1.112A8.464,8.464,0,0,0,465.888,548.993Z" transform="translate(-397.617 -511.231)" fill="#fff"/>
      <path id="Path_42" data-name="Path 42" d="M672.243,556H668.96c-.051-.4-.1-.746-.164-1.268-.427.289-.75.5-1.063.722a4.182,4.182,0,0,1-4.48.465c-1.494-.724-1.8-2.173-1.816-3.682-.02-2.56-.006-5.119-.006-7.77h3.518c0,1.013-.008,2.016,0,3.016.014,1.482-.018,2.966.079,4.444a1.578,1.578,0,0,0,1.947,1.545c1.326-.107,1.911-.653,1.913-1.791,0-2.386,0-4.771,0-7.232h3.352C672.243,548.261,672.243,552.078,672.243,556Z" transform="translate(-559.565 -512.595)" fill="#fff"/>
      <path id="Path_43" data-name="Path 43" d="M347.421,544.37h3.384c0,.558-.008,1.084,0,1.609.032,1.85.04,3.7.115,5.55.055,1.34.663,1.915,1.85,1.882,1.45-.04,2.028-.6,2.028-1.971,0-2.321,0-4.642,0-7.044h3.388v11.538h-3.3c-.057-.366-.111-.716-.192-1.239-.382.257-.679.435-.954.643a4.5,4.5,0,0,1-3.223.9,3.079,3.079,0,0,1-3.055-3.055C347.3,550.273,347.421,547.348,347.421,544.37Z" transform="translate(-309.01 -512.531)" fill="#fff"/>
      <path id="Path_44" data-name="Path 44" d="M298.789,533.236l-1.219-.168v-2.2c1.407.245,1.456-.613,1.367-1.621-.051-.564-.008-1.136-.008-1.781h3.447c0,.835.02,1.692-.006,2.547-.02.607.214.845.831.821.869-.036,1.741-.01,2.681-.01v2.293h-3.421c0,2.046-.079,3.955.032,5.855.059,1.011.892,1.472,2.006,1.34a12.461,12.461,0,0,0,1.359-.309c.026.042.053.067.055.093.22,2.392.04,2.588-2.39,2.6-.269,0-.54.006-.809,0-2.669-.085-3.773-1.225-3.785-3.9-.008-1.751-.012-3.5-.024-5.255A1.12,1.12,0,0,0,298.789,533.236Z" transform="translate(-269.271 -499.048)" fill="#fff"/>
      <path id="Path_45" data-name="Path 45" d="M736.624,550.709v1.332c0,1.88.02,2.028-1.812,2.274a12.793,12.793,0,0,1-4.476-.111c-2.727-.627-4.025-2.77-3.989-6a5.451,5.451,0,0,1,4.155-5.618,8.631,8.631,0,0,1,5.354.239c.544.194.833.449.782,1.08-.057.722-.014,1.452-.014,2.351-2.044-1.334-4.013-2.57-5.962-.372a4.594,4.594,0,0,0,.087,5.3C731.974,552.546,733.464,552.445,736.624,550.709Z" transform="translate(-611.36 -510.858)" fill="#fff"/>
      <path id="Path_46" data-name="Path 46" d="M416.66,544.006h3.386c.051.483.1.936.16,1.549,1.26-.912,2.394-1.957,4.092-1.551v3c-1.078.1-2.074.18-3.069.283-.843.087-1.16.516-1.124,1.411.077,1.915.022,3.835.022,5.752v1.112H416.66Z" transform="translate(-364.284 -512.167)" fill="#fff"/>
    </g>
  </g>
</svg>
