<svg id="twitter" xmlns="http://www.w3.org/2000/svg" width="22.441" height="18.233" viewBox="0 0 22.441 18.233">
  <g id="Group_2" data-name="Group 2" transform="translate(0 0)">
    <path id="Path_35" data-name="Path 35" d="M22.441,50.159a9.592,9.592,0,0,1-2.651.727,4.575,4.575,0,0,0,2.024-2.543A9.194,9.194,0,0,1,18.9,49.456,4.6,4.6,0,0,0,10.938,52.6a4.737,4.737,0,0,0,.107,1.049,13.022,13.022,0,0,1-9.483-4.812,4.6,4.6,0,0,0,1.414,6.149A4.543,4.543,0,0,1,.9,54.421v.05a4.622,4.622,0,0,0,3.686,4.52,4.592,4.592,0,0,1-1.206.151,4.068,4.068,0,0,1-.871-.079,4.644,4.644,0,0,0,4.3,3.2,9.244,9.244,0,0,1-5.7,1.962A8.616,8.616,0,0,1,0,64.169a12.952,12.952,0,0,0,7.058,2.065A13,13,0,0,0,20.152,53.142c0-.2-.007-.4-.017-.595A9.178,9.178,0,0,0,22.441,50.159Z" transform="translate(0 -48)" fill="#fff"/>
  </g>
</svg>
